<?xml version="1.0" encoding="utf-8"?>
<!-- Generator: Adobe Illustrator 23.0.0, SVG Export Plug-In . SVG Version: 6.00 Build 0)  -->
<svg version="1.1" id="圖層_1" xmlns="http://www.w3.org/2000/svg" xmlns:xlink="http://www.w3.org/1999/xlink" x="0px" y="0px"
	 viewBox="0 0 2721 512" style="enable-background:new 0 0 2721 512;" xml:space="preserve">
<g>
	<path d="M288.46,0.63h-93.17H0.59l25.23,25.31h194.71h93.17c21.92,0,42.81,6.94,59.89,18.85C355.1,17.86,323.05,0.63,288.46,0.63z"
		/>
	<path d="M372.93,335.05c12.37,18.05,18.9,40.41,16.61,64.41c-4.83,50.6-50.23,87.76-101.08,87.76h-93.17H97.94
		c-19.92,0-38.39-6.14-53.69-16.6c17.14,25.29,46.1,41.91,78.93,41.91h97.35h93.17c50.85,0,96.25-37.16,101.08-87.76
		C418.32,387.58,400.86,354.25,372.93,335.05z"/>
	<path d="M224.71,317.89h93.17c20.45,0,39.38,6.38,55.05,17.15c-17.54-25.6-46.9-42.46-80.28-42.46h-93.17
		c-21.92,0-42.81-6.94-59.89-18.85C158.08,300.67,190.12,317.89,224.71,317.89z"/>
	<path d="M26.84,317.89c-0.48-46.3,31.8-85.18,75.16-94.91c6.38,20.87,19.95,38.46,37.58,50.76c-8.69-12.65-14.41-27.43-15.95-43.6
		c-0.31-3.22-0.4-6.4-0.4-9.56h97.29h97.35c53.76,0,97.29-43.58,97.29-97.32h97.41l-25.23-25.31h-75.57
		c-6.06-21.9-19.9-40.4-38.19-53.16c8.69,12.65,14.41,27.43,15.95,43.6c0.31,3.22,0.4,6.4,0.4,9.56h-97.29h-97.35
		c-53.76,0-97.29,43.58-97.29,97.32h-0.06c-53.6,0-96.9,43.73-96.34,97.31l1.05,100.38c0.34,32.31,16.76,60.69,41.59,77.66
		c-10.14-14.96-16.15-32.95-16.36-52.35L26.84,317.89z M220.53,123.26h97.35h68.67c-11.16,41.45-48.91,72.01-93.9,72.01h-97.35
		h-68.67C137.79,153.81,175.54,123.26,220.53,123.26z"/>
</g>
<g>
	<g>
		<path d="M592,169.32h54.42c43.02,0,71.7,14.33,71.7,56.01c0,40.35-28.68,59.12-70.37,59.12h-31.52v75.8H592V169.32z M644.64,264.9
			c33.58,0,49.48-12.23,49.48-39.57c0-27.62-16.9-36.45-50.53-36.45h-27.35v76.02H644.64z"/>
		<path d="M780.29,323.51c0-30.73,26.85-46.11,87-52.89c0-18.23-5.95-35.67-29.14-35.67c-16.45,0-31.29,7.55-42.51,15.11
			l-9.35-16.39c13.01-8.33,33.07-18.5,55.75-18.5c34.41,0,48.98,23.17,48.98,58.07v87.01h-19.52l-2.11-16.95h-0.78
			c-13.56,11.22-29.46,20.33-46.91,20.33C798.02,363.63,780.29,349.03,780.29,323.51z M867.29,325.85v-39.57
			c-47.64,5.73-63.82,17.45-63.82,35.67c0,16.17,10.95,22.67,25.01,22.67C842.28,344.63,853.5,338.13,867.29,325.85z"/>
		<path d="M983.11,218.82h19.56l2.06,25.78h0.78c9.94-18,24.24-29.45,40.13-29.45c6.28,0,10.67,0.78,15.12,3.11l-4.44,20.84
			c-4.67-1.83-8.06-2.34-13.79-2.34c-11.73,0-26.3,8.34-35.69,32.56v90.91h-23.73V218.82z"/>
		<path d="M1115.32,323.51c0-30.73,26.85-46.11,87.05-52.89c0-18.23-6-35.67-29.23-35.67c-16.4,0-31.24,7.55-42.47,15.11
			l-9.34-16.39c13.01-8.33,33.07-18.5,55.75-18.5c34.41,0,48.98,23.17,48.98,58.07v87.01h-19.56l-2.06-16.95h-0.78
			c-13.56,11.22-29.46,20.33-46.91,20.33C1133.06,363.63,1115.32,349.03,1115.32,323.51z M1202.37,325.85v-39.57
			c-47.69,5.73-63.86,17.45-63.86,35.67c0,16.17,10.95,22.67,25.01,22.67C1177.36,344.63,1188.54,338.13,1202.37,325.85z"/>
		<path d="M1307.97,289.67c0-45.85,28.95-74.51,61.25-74.51c16.68,0,27.35,6.27,39.86,16.67l-1.28-24.5v-54.4h23.69v207.32h-19.29
			l-2.34-16.67h-0.5c-11.23,10.95-26.07,20.06-43.02,20.06C1330.92,363.63,1307.97,336.8,1307.97,289.67z M1407.8,324.3v-74.24
			c-12.01-10.67-22.68-14.84-34.41-14.84c-22.95,0-40.91,21.89-40.91,54.18c0,34.12,14.06,54.45,39.08,54.45
			C1384.62,343.85,1396.07,337.3,1407.8,324.3z"/>
		<path d="M1522.38,174.26c0-9.61,7.01-15.34,16.4-15.34s16.4,5.73,16.4,15.34c0,8.89-7.01,15.39-16.4,15.39
			S1522.38,183.15,1522.38,174.26z M1526.77,218.82h23.73v141.42h-23.73V218.82z"/>
		<path d="M1629.49,344.08l11.73-15.62c12.28,9.89,25.01,16.67,41.96,16.67c18.74,0,27.9-9.89,27.9-22.12
			c0-14.34-16.67-20.84-32.34-26.84c-19.79-7.28-42.19-16.94-42.19-40.89c0-22.4,17.96-40.12,48.7-40.12
			c17.5,0,32.85,7.28,44.07,15.89l-11.5,15.39c-9.89-7.33-19.79-12.5-32.57-12.5c-17.69,0-25.79,9.34-25.79,20.29
			c0,13.56,15.39,18.5,31.29,24.5c20.57,7.78,43.24,16.12,43.24,42.96c0,22.94-18.23,41.95-51.59,41.95
			C1662.34,363.63,1643.05,355.3,1629.49,344.08z"/>
		<path d="M1803.72,289.67c0-45.85,31.01-74.51,63.86-74.51c35.92,0,56.26,26.06,56.26,66.4c0,5.22-0.5,10.17-1.06,13.56h-95.34
			c1.56,30.22,20.06,49.5,46.87,49.5c13.84,0,25.01-4.16,35.46-11.22l8.61,15.62c-12.51,8.1-27.63,14.61-46.91,14.61
			C1833.96,363.63,1803.72,336.29,1803.72,289.67z M1903,278.18c0-28.63-13.01-44.01-35.18-44.01c-20.07,0-37.8,16.16-40.64,44.01
			H1903z"/>
		<path d="M2099.4,335.24l14.34-16.39c13.83,14.34,33.07,23.68,52.91,23.68c25.01,0,40.13-12.5,40.13-31.23
			c0-19.56-13.84-25.78-31.8-33.89l-27.62-11.95c-17.73-7.56-38.85-21.11-38.85-48.96c0-29.45,25.56-50.83,60.2-50.83
			c22.68,0,42.75,9.67,56.31,23.72l-12.78,15.39c-11.73-10.95-25.79-18-43.53-18c-21.62,0-35.69,10.95-35.69,28.12
			c0,18.5,16.68,25.56,31.52,31.79l27.35,11.72c22.17,9.66,39.35,22.67,39.35,51.06c0,30.23-25.01,54.18-64.87,54.18
			C2139.26,363.63,2116.08,352.69,2099.4,335.24z"/>
		<path d="M2303.04,289.67c0-47.17,31.01-74.51,65.65-74.51c34.68,0,65.7,27.34,65.7,74.51c0,46.85-31.01,73.96-65.7,73.96
			C2334.05,363.63,2303.04,336.52,2303.04,289.67z M2409.88,289.67c0-32.56-16.68-54.73-41.19-54.73
			c-24.46,0-40.91,22.16-40.91,54.73c0,32.56,16.44,54.17,40.91,54.17C2393.2,343.85,2409.88,322.23,2409.88,289.67z"/>
		<path d="M2582.27,172.21c-5.23-2.38-10.95-3.66-15.9-3.66c-13.56,0-20.06,9.61-20.06,27.89v22.39h29.96v19.28h-29.96v122.14
			h-23.69V238.11h-19.29v-18l19.29-1.28v-22.67c0-28.67,13.01-46.62,41.14-46.62c8.61,0,16.95,1.83,23.73,4.67L2582.27,172.21z"/>
		<path d="M2654.52,316.51v-78.4h-21.07v-18l22.13-1.28l2.89-39.61h19.79v39.61h38.3v19.28h-38.3v78.91
			c0,17.45,5.45,27.34,21.9,27.34c4.94,0,11.45-1.83,16.12-3.66l4.72,17.72c-8.11,2.61-17.5,5.22-26.07,5.22
			C2664.69,363.63,2654.52,344.86,2654.52,316.51z"/>
	</g>
</g>
</svg>
